<svg width="32" height="32" viewBox="0 0 32 32" fill="none" xmlns="http://www.w3.org/2000/svg">
<g clip-path="url(#clip0_4_4)">
<mask id="mask0_4_4" style="mask-type:luminance" maskUnits="userSpaceOnUse" x="0" y="0" width="32" height="32">
<path d="M32.5 0H0.5V32H32.5V0Z" fill="white"/>
</mask>
<g mask="url(#mask0_4_4)">
<path fill-rule="evenodd" clip-rule="evenodd" d="M21.6361 12.7037C21.0002 12.7037 20.4841 12.2037 20.4841 11.5877C20.4841 10.9717 21.0002 10.4727 21.6361 10.4727C22.2719 10.4727 22.787 10.9717 22.787 11.5877C22.787 12.2037 22.2719 12.7037 21.6361 12.7037ZM16.8206 20.8637C14.1718 20.8637 12.0154 18.7757 12.0154 16.2087C12.0154 13.6417 14.1718 11.5527 16.8206 11.5527C19.4704 11.5527 21.6268 13.6417 21.6268 16.2087C21.6268 18.7757 19.4704 20.8637 16.8206 20.8637ZM20.5759 9.01978H13.0663C11.041 9.01978 9.39966 10.6097 9.39966 12.5707V19.8467C9.39966 21.8077 11.041 23.3977 13.0663 23.3977H20.5759C22.6012 23.3977 24.2425 21.8077 24.2425 19.8467V12.5707C24.2425 10.6097 22.6012 9.01978 20.5759 9.01978Z" fill="#2015FF"/>
<path fill-rule="evenodd" clip-rule="evenodd" d="M16.8213 13.364C15.1996 13.364 13.8845 14.638 13.8845 16.209C13.8845 17.78 15.1996 19.053 16.8213 19.053C18.443 19.053 19.7581 17.78 19.7581 16.209C19.7581 14.638 18.443 13.364 16.8213 13.364Z" fill="#2015FF"/>
<path fill-rule="evenodd" clip-rule="evenodd" d="M26.1114 19.8463C26.1114 22.8033 23.6278 25.2083 20.5765 25.2083H13.0658C10.0144 25.2083 7.53078 22.8033 7.53078 19.8463V12.5713C7.53078 9.61438 10.0144 7.20838 13.0658 7.20838H20.5765C23.6278 7.20838 26.1114 9.61438 26.1114 12.5713V19.8463ZM16.8211 0.708374C8.24613 0.708374 1.29181 7.64938 1.29181 16.2083C1.29181 24.7673 8.24613 31.7083 16.8211 31.7083C25.3961 31.7083 32.3504 24.7673 32.3504 16.2083C32.3504 7.64938 25.3961 0.708374 16.8211 0.708374Z" fill="#2015FF"/>
</g>
</g>
<defs>
<clipPath id="clip0_4_4">
<rect width="32" height="32" fill="white" transform="translate(0.5)"/>
</clipPath>
</defs>
</svg>
