<svg width="32" height="32" viewBox="0 0 32 32" fill="none" xmlns="http://www.w3.org/2000/svg">
<g clip-path="url(#clip0_4_12)">
<mask id="mask0_4_12" style="mask-type:luminance" maskUnits="userSpaceOnUse" x="0" y="0" width="32" height="32">
<path d="M32.5 0H0.5V32H32.5V0Z" fill="white"/>
</mask>
<g mask="url(#mask0_4_12)">
<path fill-rule="evenodd" clip-rule="evenodd" d="M16.7148 0.648193C8.13975 0.648193 1.18542 7.58919 1.18542 16.1482C1.18542 24.7072 8.13975 31.6482 16.7148 31.6482C25.2897 31.6482 32.244 24.7072 32.244 16.1482C32.244 7.58919 25.2897 0.648193 16.7148 0.648193ZM8.41949 24.0802H12.2017V12.7232H8.41949V24.0802ZM10.3116 11.1722H10.2868C9.01716 11.1722 8.19652 10.3002 8.19652 9.21021C8.19652 8.09621 9.04194 7.2482 10.3364 7.2482C11.6299 7.2482 12.4268 8.09621 12.4505 9.21021C12.4505 10.3002 11.6299 11.1722 10.3116 11.1722ZM25.8399 24.0802H22.0577V18.0042C22.0577 16.4772 21.5106 15.4362 20.1418 15.4362C19.0972 15.4362 18.4748 16.1382 18.2012 16.8162C18.1011 17.0592 18.0773 17.3982 18.0773 17.7372V24.0802H14.2951C14.2951 24.0802 14.3447 13.7882 14.2951 12.7232H18.0773V14.3312C18.58 13.5572 19.4791 12.4562 21.4858 12.4562C23.9736 12.4562 25.8399 14.0792 25.8399 17.5682V24.0802Z" fill="#2015FF"/>
</g>
</g>
<defs>
<clipPath id="clip0_4_12">
<rect width="32" height="32" fill="white" transform="translate(0.5)"/>
</clipPath>
</defs>
</svg>
