<svg width="32" height="32" viewBox="0 0 32 32" fill="none" xmlns="http://www.w3.org/2000/svg">
<g clip-path="url(#clip0_4_18)">
<mask id="mask0_4_18" style="mask-type:luminance" maskUnits="userSpaceOnUse" x="0" y="0" width="32" height="32">
<path d="M32.5 0H0.5V32H32.5V0Z" fill="white"/>
</mask>
<g mask="url(#mask0_4_18)">
<path fill-rule="evenodd" clip-rule="evenodd" d="M16.105 0.648193C7.54598 0.648193 0.60498 7.58919 0.60498 16.1482C0.60498 24.7072 7.54598 31.6482 16.105 31.6482C24.664 31.6482 31.605 24.7072 31.605 16.1482C31.605 7.58919 24.664 0.648193 16.105 0.648193ZM23.182 12.7332C23.189 12.8862 23.192 13.0392 23.192 13.1932C23.192 17.8942 19.614 23.3152 13.07 23.3152C11.061 23.3152 9.19098 22.7272 7.61698 21.7172C7.89498 21.7502 8.17798 21.7672 8.46498 21.7672C10.132 21.7672 11.666 21.1982 12.884 20.2442C11.327 20.2152 10.013 19.1862 9.55998 17.7732C9.77698 17.8142 9.99998 17.8372 10.229 17.8372C10.554 17.8372 10.868 17.7932 11.167 17.7122C9.53898 17.3862 8.31298 15.9472 8.31298 14.2242C8.31298 14.2082 8.31298 14.1942 8.31298 14.1792C8.79298 14.4452 9.34098 14.6062 9.92498 14.6242C8.96898 13.9862 8.34198 12.8972 8.34198 11.6622C8.34198 11.0102 8.51798 10.4002 8.82298 9.87419C10.578 12.0272 13.2 13.4432 16.157 13.5912C16.096 13.3312 16.064 13.0592 16.064 12.7802C16.064 10.8162 17.657 9.22321 19.622 9.22321C20.646 9.22321 21.57 9.6552 22.219 10.3472C23.03 10.1872 23.791 9.8912 24.478 9.4832C24.212 10.3142 23.648 11.0102 22.914 11.4512C23.633 11.3652 24.319 11.1742 24.957 10.8912C24.481 11.6042 23.877 12.2312 23.182 12.7332Z" fill="#2015FF"/>
</g>
</g>
<defs>
<clipPath id="clip0_4_18">
<rect width="32" height="32" fill="white" transform="translate(0.5)"/>
</clipPath>
</defs>
</svg>
